<?xml version="1.0" encoding="utf-8"?>
<!-- Generator: Adobe Illustrator 19.2.1, SVG Export Plug-In . SVG Version: 6.00 Build 0)  -->
<svg version="1.1" id="Calque_1" xmlns="http://www.w3.org/2000/svg" xmlns:xlink="http://www.w3.org/1999/xlink" x="0px" y="0px"
	 viewBox="0 0 365.3 307.5" style="enable-background:new 0 0 365.3 307.5;" xml:space="preserve">
<style type="text/css">
	.st0{fill-rule:evenodd;clip-rule:evenodd;fill:#333333;}
	.st1{fill:#FFAB42;}
	.st2{fill:none;}
	.st3{fill:#3772FF;}
	.st4{fill:#4D434D;}
</style>
<path class="st0" d="M-47,70"/>
<g>
	<path class="st1" d="M110.6,134.3c2.8,12,8.3,19.1,16.4,20.8c4,0.8,15.9,1.4,19.4,1.4c0,0-1,0-1,0c2.1,0,3.7-0.6,3.7-4.5
		c0-4.2,0-46,0-52c0-3.4-0.8-5.8-3.6-5.8c-2.8,0-14.8-0.5-17.3,0.6c0,0.1,0,0.2,0,0.3c0,0.2,0.1,0.5,0.1,0.7
		c0.1,0.5,0.1,0.9,0.1,1.4c0.1,1.7,0,3.4-0.2,5.3c-0.4,2.9-1.1,5.9-2.1,8.8c-0.7,2-1.5,4-2.5,5.8c-0.6,1.1-1,1.8-1.2,2.1
		c-0.1,0.2-0.2,0.2-0.3,0.3c-0.1,0.1-0.2,0.1-0.3,0.1l-0.4,0.2l-0.1-0.1l-0.1,0l-0.4-0.4l0.6-0.7l-0.8-0.3c0-0.1,0.1-0.6,0.4-2.1
		c0.2-1,0.5-3.1,0.9-6c0.3-2.6,0.7-5.4,0.7-8.2c0-1.7,0-3.1-0.2-4.4c0-0.4-0.1-0.7-0.1-1.1l-0.2-1.1c-0.2-0.8-0.4-1.5-0.6-2.1
		c-0.4-1.3-1.1-2.6-1.8-3.8c-0.7-1.1-1.6-2.1-2.6-2.9c-1-0.8-2.1-1.4-3.2-1.9c-1.1-0.5-2.3-0.8-3.4-1c-0.3,0-0.6-0.1-0.9-0.1
		l-1.2,0.3c-3.8,1-9.1,2.4-16.8,2.8c-4.7,0.2-8.3-0.3-11.3-0.7c-4.1-0.6-7.1-1-10.4,0.9c-4.7,2.6-6.9,7.5-6.2,13.4
		c0.9,7.1,6.5,15.6,17,18.5c8.3,2.3,17,1.1,26.4-3.7l1.5-0.8l-0.1,1.7C108.8,116.4,108.5,125.2,110.6,134.3z"/>
	<g>
		<path class="st1" d="M42.3,148.4c1,0.8,2.1,1.5,3.3,2.3c1.1,0.7,2.2,1.4,3.4,2.1c2.6,1.5,4.8,2.4,6.8,2.7c1,0.2,2,0.3,3.3,0.3
			c0.7,0,1.8-0.2,3-0.5c2.2-0.6,4.3-1.4,6-2.4c1.8-1.1,3.1-2.2,4-3.5c0.9-1.2,1.4-2.6,1.6-4.1c0.2-1.6,0.2-2.9,0-3.7l0-0.3
			c-0.1-1.1-0.3-2.5-1.2-4.8c-1.1-2.6-2.6-4.7-6.8-7.2l-3.3-1c-0.2,0.3-0.4,0.6-0.7,0.9c-1.3,1.5-2.6,2.7-4,3.6
			c-1.6,1-3.2,1.8-4.8,2.2c-1.5,0.5-3.2,0.8-5,0.9c-2.9,0.2-6.1-0.2-9.6-1.1c-1.8-0.4-3.2-0.9-4.5-1.3c-1.1-0.4-2.2-0.8-3.3-1.2
			l-0.9-0.3c-1.5-0.6-8.1-1.1-12.9-1.4c0.1,0.5,0.2,1.1,0.4,1.8c0.3,1.2,0.7,2.4,1.4,3.7c0.5,1,1.5,2.3,3.1,3.2
			c1.5,0.8,3.5,1.4,5.5,2l0.3,0.1c2.9,0.8,5.3,1.7,7.5,2.7C37.4,145.1,39.9,146.6,42.3,148.4z"/>
		<path class="st1" d="M75.3,155.3c-1,1.2-2.2,2.3-3.5,3.2c-2.3,1.6-4.9,2.9-7.8,3.7c-0.8,0.2-1.5,0.4-2.3,0.5
			c-0.4,0.1-0.8,0.1-1.2,0.2l-1.3,0.1l-0.2,0c-1.7,0-3.4-0.3-4.9-0.7c-3.3-1-6.1-2.6-8.4-4.1c-1.1-0.7-2.3-1.6-3.6-2.5
			c-1.2-0.9-2.3-1.8-3.4-2.7c-2-1.7-4.1-3.1-6.2-4.2c-0.4-0.2-0.8-0.4-1.2-0.6c0.9,6.9,4.1,12.9,8.2,15.1c7,3.7,9.3,5.7,11.1,7.3
			c1.7,1.5,3.1,2.7,8.2,4.9c7.2,3.1,14.6-0.3,17.9-5.2C79.9,165.6,79.3,160.1,75.3,155.3z"/>
		<path class="st1" d="M16.7,123.5c0.7,0,1.3,0,2,0c1.2,0,2.4,0,3.7,0.1c3.2,0.2,6.3,0.8,9.2,1.6l1.1,0.3c1,0.3,2,0.6,2.9,0.8
			c1.3,0.3,2.7,0.6,4,0.9c1.3,0.2,2.6,0.4,4,0.4c1.4,0.1,2.7,0.1,3.9,0c1.3-0.1,2.5-0.2,3.7-0.5c1.2-0.3,2.3-0.7,3.2-1.2
			c1.1-0.6,2-1.2,2.8-2c0.6-0.6,1.2-1.3,1.8-2.1c2.4-6.4,0.8-16-6.9-22.2c-2.2-1.8-8.4-3.2-14.6-2.4c-4.3,0.5-7.5,2-9.1,4.1
			l-1.2,1.5L16.3,89.3C4.4,96.3,2.4,99.5,1.7,107c-0.2,2.4-0.1,4.7,0.4,6.9l0.4,0.8c0.5,1.1,1.2,2.4,2,3.6c0.8,1.3,1.6,2.2,2.4,3
			c0.8,0.8,1.8,1.3,2.9,1.7c1.2,0.4,2.5,0.5,3.7,0.5C14.6,123.5,15.6,123.5,16.7,123.5z"/>
	</g>
</g>
<g>
	<path class="st2" d="M136.3,209.1c1.5-1.1,3.3-2.5,4.7-5.5l0-0.1c0.5-1,1-2.2,1.2-3.4c0.2-1.3,0.2-2.7-0.2-4
		c-0.7-2.6-2.5-4.6-4.1-6.2c0,0-3.6-3.4-4.3-4.1c-1.5-1.5-18.9-17.8-19-17.9l-0.6-0.6l-0.4,0.3l0.1,0.1c0,0,2.5,3.3,6.3,8
		c1.7,2.1,4,5,6.7,8.1c1.4,1.6,2.6,3,3.9,4.4c1.4,1.5,2.9,3,4.4,4.3c1.3,1.2,2.8,2.7,3.3,4.6c0.5,1.7,0.3,3.7-0.6,5.4
		c-0.7,1.4-1.8,2.7-3.4,4.2c-0.8,0.7-9.3,8.6-14,12.8c0.3,0,0.6,0,0.9,0c5.2-3.6,13.8-9.6,14.6-10.1
		C136,209.3,136.1,209.2,136.3,209.1z"/>
	<path class="st2" d="M63.3,281.8c0,6.2,0.8,10.4,2.3,12.7c1.4,2.1,3.4,3.1,5.9,3.1c7.9,0,7.8-11.9,7.8-15.8v-36.7
		c0-5.5-0.7-9-1.7-11.4c-4.6,2.7-9.3,5.2-14.1,7.2c-0.1,1.3-0.2,2.7-0.2,4.2V281.8z"/>
	<path class="st2" d="M88.2,193.7c-1.5,4.4-5.4,11.9-5.4,11.9s6.2-2.6,8.4-10.1c2.2-7.5,0.5-13.6,0.5-13.6S89.7,189.3,88.2,193.7z"
		/>
	<path class="st2" d="M26.7,230.5h-4.4v37h4.4c5.3,0,7.6-5.9,7.6-16.6v-3.6C34.3,236.5,32,230.5,26.7,230.5z"/>
	<path class="st2" d="M48.3,84c-0.1-0.1-0.1-0.1-0.2-0.2C48.2,84,48.2,84,48.3,84L48.3,84z"/>
	<path class="st2" d="M48.2,83.8C47.4,82.3,42.7,72,39.5,65c-3.4-7.6-10.3-18.6-10.3-18.6s3.4,13.1,6.7,19.9
		C38.4,71.2,44.4,80.6,48.2,83.8z"/>
	<path class="st2" d="M61.8,31.3L61.8,31.3c0,0.1,0,0.1,0,0.2C61.8,31.4,61.8,31.3,61.8,31.3z"/>
	<path class="st2" d="M67.3,68.7c0,0-0.3-12.1-1.2-18.9c-0.7-4.9-2.7-14.5-4.3-18.2C62,33,63.3,43.1,64.1,50
		C65,57.4,67.3,68.7,67.3,68.7z"/>
	<path class="st2" d="M92.4,145c0,0,0.3,0.8,0.8,2.2c0.2,0.7,0.6,1.5,0.9,2.6c0.3,1,0.7,2.1,1.1,3.3c0.3,1.2,0.7,2.6,1.1,4
		c0.4,1.4,0.7,3,1,4.5c0.3,1.6,0.6,3.2,1,4.9c0.3,1.7,0.6,3.4,0.8,5.1c0.2,1.7,0.5,3.4,0.7,5.1c0.2,1.7,0.4,3.3,0.6,4.9
		c0.2,1.6,0.3,3.2,0.5,4.6c0.2,1.5,0.2,2.9,0.4,4.1c0.2,2.6,0.4,4.7,0.4,6.2c0.1,1.5,0.1,2.4,0.1,2.4s3.8-14.3,1.2-30.1
		C100.4,153.1,92.4,145,92.4,145z"/>
	<path class="st2" d="M99.7,242.9c0.3,0.4,0.7,0.6,1.2,0.6c0-0.3,0-0.6,0-0.9c0-1.9,0.1-3.7,0.2-5.3
		C99.1,240.4,99.3,242.4,99.7,242.9z"/>
	<path class="st2" d="M254.8,230.5h-5.5v66h5.5c5.5,0,8.5-5.5,8.5-16v-33.7C263.3,236.2,260.3,230.5,254.8,230.5z"/>
	<path class="st3" d="M78.5,73.9c3.2,0.3,5.3,1.1,5.3,1.1c2.1-10.2,3.5-14.4,5.8-33.5c3-24.4-0.5-36.9-14.9-34.7
		c-13.3,2-9.6,14.3-23.8,25.6L59.8,82C59.8,82,64.5,72.8,78.5,73.9z M61.8,31.3c0,0,0,0.1,0,0.2c1.5,3.7,3.6,13.3,4.3,18.2
		c0.9,6.7,1.2,18.9,1.2,18.9S65,57.4,64.1,50C63.3,43.1,62,33,61.8,31.5C61.8,31.5,61.7,31.4,61.8,31.3L61.8,31.3z"/>
	<path class="st3" d="M42.4,86.1c7.3,0.1,12.5,2.4,12.5,2.4L34.1,0c-9,17.5-15.3,26-26.6,34c-13.4,9.6-6.2,19.3,0,27.3
		c8.3,10.7,22,28.3,22,28.3S35.1,86,42.4,86.1z M39.5,65c3.1,7,7.9,17.3,8.6,18.8c0.1,0.1,0.1,0.1,0.2,0.2l-0.1,0c0,0,0-0.1-0.1-0.2
		c-3.7-3.2-9.8-12.6-12.2-17.5c-3.3-6.8-6.7-19.9-6.7-19.9S36.1,57.5,39.5,65z"/>
	<path class="st3" d="M95.6,76.8c0.1-0.4,10.9-24.1,10.9-24.1s-1.5,7.1-3.6,13.9c-0.8,2.7-2.6,9.6-2.8,9.9c4.2-1.2,5.3-1.6,8.9-3.9
		c8.9-13.5,12.4-27.3,18.7-57.1c-14.1,17.3-18.1,22.8-28.1,28.8l-10,32C89.6,76.3,91.9,77,95.6,76.8z"/>
	<path class="st3" d="M99.7,242.9c-0.4-0.5-0.7-2.5,1.4-5.6c0.6-5.7,2.1-9.8,4.7-12.5c3.3-3.5,7.8-5.2,13.5-5.2c0.3,0,0.7,0,1,0
		c4.6-4.3,13.1-12.1,14-12.8c1.6-1.4,2.6-2.7,3.4-4.2c0.9-1.7,1.1-3.7,0.6-5.4c-0.6-1.9-2-3.4-3.3-4.6c-1.5-1.3-3-2.7-4.4-4.3
		c-1.3-1.4-2.6-2.8-3.9-4.4c-2.6-3.1-5-5.9-6.7-8.1c-3.8-4.7-6.3-8-6.3-8l-0.1-0.1l0.4-0.3l0.6,0.6c0.1,0.1,17.5,16.4,19,17.9
		c0.7,0.7,4.2,4.1,4.3,4.1c1.7,1.6,3.5,3.6,4.1,6.2c0.3,1.4,0.4,2.7,0.2,4c-0.2,1.3-0.7,2.4-1.2,3.4l0,0.1c-1.4,3.1-3.2,4.4-4.7,5.5
		c-0.1,0.1-0.3,0.2-0.4,0.3c-0.7,0.5-9.4,6.5-14.6,10.1c4.7,0.3,8.6,1.9,11.4,4.8c0.9,0.9,1.6,1.9,2.3,3.1c4.2-2,9.1-4,14.8-6.2
		c8.4-3.2,24.3-8.7,24.3-8.7s-47.5-48.3-49.7-48.7c-5.1-0.9-12.1-3.2-15.7-8.7c0,0-12.4-18.7-7.1-28.8c-10.1,8.3-24.4,0.1-24.8,0
		c0,0,5.9,6,6.9,11c1.2,6.1-0.9,10.7-0.9,10.7c2.7,4.5,5.6,4.8,5.7,15.5c0.3,18.6-18,26.1-29.6,22.5c-0.3,0.9-9.3,26.9-15.8,44.2
		c1.8,3.6,2.8,8.6,3,15.1c2-0.2,4.1-0.6,6.1-1c0.2-9,1.8-15.3,4.9-19c3.4-4,8.1-6.1,14.4-6.1s10.7,2.1,14.1,6.1
		c0.6,0.7,1,1.4,1.5,2.2c0.7-0.4,1.3-0.9,2-1.3c1.6-1.3,4.7-3.6,8.6-6.3c0.9-0.7,1.9-1.4,2.8-2.1c7.1-5.7,10.4-8.2,14.9-12.8
		c9.8-10,15.3-10.5,16.4-6.3c1.1,3.8-17.9,15.3-19.7,16.7c-4.1,3.1-9,6.6-13.2,9.7c-3.5,2.5-6.5,4.7-8.2,6c0.5,4,2.8,14.3,6.6,15.3
		c1.5,0.4,2.7,0.6,3.8,0.7c-0.2-1.3-0.3-2.6-0.3-3.9C100.5,243.5,100,243.3,99.7,242.9z M91.2,195.5c-2.2,7.5-8.4,10.1-8.4,10.1
		s3.9-7.4,5.4-11.9c1.5-4.4,3.5-11.9,3.5-11.9S93.4,187.9,91.2,195.5z M101.7,198.9c0,0,0-0.9-0.1-2.4c-0.1-1.5-0.3-3.6-0.4-6.2
		c-0.1-1.3-0.2-2.7-0.4-4.1c-0.1-1.5-0.3-3-0.5-4.6c-0.2-1.6-0.4-3.3-0.6-4.9c-0.2-1.7-0.5-3.4-0.7-5.1c-0.2-1.7-0.5-3.4-0.8-5.1
		c-0.3-1.7-0.6-3.3-1-4.9c-0.4-1.6-0.7-3.1-1-4.5c-0.4-1.4-0.7-2.8-1.1-4c-0.4-1.2-0.7-2.4-1.1-3.3c-0.3-1-0.7-1.8-0.9-2.6
		c-0.5-1.4-0.8-2.2-0.8-2.2s8,8.1,10.5,23.8C105.5,184.6,101.7,198.9,101.7,198.9z"/>
	<path class="st3" d="M119.6,229.6c-1.8,0-7.1,0-7.2,11.4c2.8-2.3,6.6-5.1,12.4-8.3C123.6,230.6,121.9,229.6,119.6,229.6z"/>
	<path class="st3" d="M71.4,229.4c-2.5,0-4.4,1-5.8,3.1c-1.1,1.7-1.9,4.5-2.2,8.4c4.8-2,9.5-4.5,14.1-7.2
		C75.7,229.4,72.7,229.4,71.4,229.4z"/>
	<path class="st4" d="M37.1,245.6c0.8-1.1,3.1-7.2,6.1-15c-0.6-1.2-1.2-2.2-2-3.1c-3.4-4-8.3-6-14.5-6H12.2c-0.6,0-0.9,0.3-0.9,0.9
		v82.2c0,0.6,0.3,0.8,0.9,0.8h9.4c0.6,0,0.7-0.2,0.7-0.8v-28.2h4.4c6.2,0,11.1-2,14.5-6c3.4-4,5.1-10.9,5.1-21.2v-0.6
		c0-1.1,0-2.1-0.1-3.1C43.2,246,40.1,246,37.1,245.6z M34.3,250.8c0,10.7-2.3,16.6-7.6,16.6h-4.4v-37h4.4c5.3,0,7.6,6,7.6,16.7
		V250.8z"/>
	<path d="M37.1,245.6c3,0.4,6.1,0.3,9.1,0c-0.2-6.5-1.2-11.5-3-15.1C40.3,238.4,37.9,244.5,37.1,245.6z"/>
	<path class="st4" d="M127.2,243.6c0,0.3,0.2,0.6,0.4,0.8c0.3,0.2,0.6,0.3,0.9,0.2l8.9-2c0.5-0.1,0.9-0.6,0.9-1.2
		c-0.5-6-1.6-10.7-3.4-14c-3.9,1.8-7.2,3.5-10.1,5.1C126.3,234.9,127.1,238.6,127.2,243.6z"/>
	<path class="st4" d="M132.7,267.4c-1.4-1.5-3.2-3-5.4-4.6l-9.3-6.9c-2.2-1.7-3.7-3.7-4.4-5.8c-0.8-2.2-1.2-5.2-1.2-8.8
		c0-0.1,0-0.2,0-0.3c-5.3,4.3-7,6.7-11.2,6.5c1,7.8,4.6,13.9,10.7,18.3l9.4,6.9c4,3.2,5.9,7.6,5.9,13.6c0,7.6-2.7,11.3-8.2,11.3
		c-2.5,0-4.4-1.2-5.8-3.7c-1.5-2.7-2.4-7.3-2.7-13.7c0-0.3-0.2-0.6-0.4-0.8c-0.2-0.2-0.6-0.3-0.9-0.2l-8.8,1.5
		c-0.6,0.1-1,0.6-0.9,1.2c0.7,9.6,2.7,16.1,6,19.9c3.3,3.8,8,5.8,13.9,5.8c5.8,0,10.5-1.6,14-4.9c3.5-3.3,5.2-8.9,5.2-16.7
		c0-4.3-0.6-8.2-1.9-11.4C135.5,271.3,134.1,269,132.7,267.4z"/>
	<path class="st4" d="M117.4,222.3c0,0,1.6-1.1,3.9-2.7c-0.3,0-0.6,0-0.9,0C118.6,221.2,117.4,222.3,117.4,222.3z"/>
	<path class="st4" d="M101,243.5c0.8,0.1,1.7-0.2,2.8-0.7c2.6-1.3,8.2-6.2,8.2-6.2s-4.7,2.9-5.8,3.5c-4.2,2.5-4.1,0.2-3.2-2
		c0.9-2,2.2-3.3,4-5.4c2.2-2.4,3.3-3.5,5.3-5.6l2.1-2.3c-5.7,4.8-8.7,7.2-11,9.6c-1,1-1.7,1.9-2.3,2.8c-0.2,1.6-0.2,3.4-0.2,5.3
		C100.9,242.9,100.9,243.2,101,243.5z"/>
	<path d="M112.4,241c0.1-11.4,5.4-11.4,7.2-11.4c2.3,0,4,1,5.3,3c2.9-1.6,6.2-3.3,10.1-5.1c-0.7-1.2-1.4-2.3-2.3-3.1
		c-2.8-2.8-6.6-4.4-11.4-4.8c-2.3,1.6-3.9,2.7-3.9,2.7s1.2-1.1,3-2.7c-0.3,0-0.7,0-1,0c-5.7,0-10.2,1.8-13.5,5.2
		c-2.6,2.7-4.1,6.8-4.7,12.5c0.6-0.8,1.3-1.8,2.3-2.8c2.3-2.4,5.3-4.8,11-9.6l-2.1,2.3c-2,2.1-3.1,3.2-5.3,5.6c-1.9,2-3.1,3.3-4,5.4
		c-0.9,2.1-1.1,4.4,3.2,2c1.1-0.6,5.8-3.5,5.8-3.5s-5.6,4.9-8.2,6.2c-1,0.5-2,0.8-2.8,0.7c0,1.3,0.1,2.6,0.3,3.9
		C105.5,247.7,107.1,245.3,112.4,241z"/>
	<path class="st4" d="M226.1,221.5h-29.5c-0.6,0-1.3,0.3-1.3,0.9v82.2c0,0.6,0.7,0.8,1.3,0.8h29.8c0.6,0,0.8-0.2,0.8-0.8v-7.5
		c0-0.6-0.2-0.6-0.8-0.6h-19.2v-28h17c0.6,0,2-0.5,2-1.1v-7.5c0-0.6-1.3-1.4-2-1.4h-17v-28h18.8c0.6,0,1.2,0.1,1.2-0.6v-7.5
		C227.3,221.8,226.7,221.5,226.1,221.5z"/>
	<path class="st4" d="M204.9,215.7c0.2,0.3,0.6,0.5,1,0.5c0.2,0,0.4-0.1,0.6-0.2l16.8-10.2c0.5-0.3,0.7-0.9,0.4-1.5l-4.1-7.9
		c-0.2-0.3-0.5-0.5-0.8-0.6c-0.3-0.1-0.7,0-0.9,0.3l-15.3,13.9c-0.4,0.4-0.5,0.9-0.2,1.4L204.9,215.7z"/>
	<path class="st4" d="M316,221.5h-29.5c-0.6,0-1.2,0.3-1.2,0.9v82.2c0,0.6,0.6,0.8,1.2,0.8h29.8c0.6,0,1-0.2,1-0.8v-7.5
		c0-0.6-0.4-0.6-1-0.6h-19v-28h16.9c0.6,0,1.1-0.5,1.1-1.1v-7.5c0-0.6-0.5-1.4-1.1-1.4h-16.9v-28H316c0.6,0,1.3,0.1,1.3-0.6v-7.5
		C317.3,221.8,316.6,221.5,316,221.5z"/>
	<path class="st4" d="M79.3,245.2v36.7c0,3.9,0.1,15.8-7.8,15.8c-2.5,0-4.5-1-5.9-3.1c-1.5-2.2-2.3-6.5-2.3-12.7v-36.7
		c0-1.5,0.1-2.9,0.2-4.2c-3.7,1.5-7.4,2.8-11.1,3.7c0,0.8,0,1.5,0,2.3v33.1c0,10.3,1.5,17.3,4.9,21.3c3.4,4,8.2,6.1,14.4,6.1
		s10.7-2.1,14.1-6.1c3.4-4,4.6-11,4.6-21.3v-33.1c0-8.6-0.9-14.9-3.1-19.1c-3.1,2-6.3,4-9.6,5.9C78.6,236.1,79.3,239.7,79.3,245.2z"
		/>
	<path d="M71.6,219.5c-6.2,0-11,2.1-14.4,6.1c-3.1,3.7-4.6,10-4.9,19c3.7-0.9,7.4-2.1,11.1-3.7c0.3-3.9,1.1-6.8,2.2-8.4
		c1.4-2.1,3.2-3.1,5.8-3.1c1.3,0,4.3,0,6.2,4.4c3.3-1.9,6.5-3.9,9.6-5.9c-0.4-0.8-0.9-1.6-1.5-2.2C82.3,221.6,77.8,219.5,71.6,219.5
		z"/>
	<path class="st4" d="M179.5,267.4c-1.4-1.5-3.2-3-5.4-4.6l-9.3-6.9c-2.2-1.7-3.7-3.7-4.4-5.8c-0.8-2.2-1.2-5.2-1.2-8.8
		c0-11.7,5.4-11.7,7.2-11.7c4.8,0,7.3,4.6,7.6,14c0,0.3,0.2,0.6,0.4,0.8c0.3,0.2,0.6,0.3,0.9,0.2l8.9-2c0.5-0.1,0.9-0.6,0.9-1.2
		c-0.7-8.3-2.5-13.8-5.7-17.1c-3.2-3.2-7.7-4.9-13.3-4.9c-5.7,0-10.2,1.8-13.5,5.2c-3.3,3.5-4.9,9.3-4.9,17.9
		c0,10.1,3.7,17.9,11,23.1l9.4,6.9c4,3.2,5.9,7.6,5.9,13.6c0,7.6-2.7,11.3-8.2,11.3c-2.5,0-4.4-1.2-5.8-3.7
		c-1.5-2.7-2.4-7.3-2.7-13.7c0-0.3-0.2-0.6-0.4-0.8c-0.2-0.2-0.6-0.3-0.9-0.2l-8.8,1.5c-0.6,0.1-1,0.6-0.9,1.2
		c0.7,9.6,2.7,16.1,6,19.9c3.3,3.8,8,5.8,13.9,5.8c5.8,0,10.5-1.6,14-4.9c3.5-3.3,5.2-8.9,5.2-16.7c0-4.3-0.6-8.2-1.9-11.4
		C182.2,271.3,180.9,269,179.5,267.4z"/>
	<path class="st4" d="M254.8,221.5h-16c-0.6,0-1.5,0.3-1.5,0.9v82.2c0,0.6,0.9,0.8,1.5,0.8h16c6.3,0,11.1-1.9,14.5-6
		c3.4-4,5-10.9,5-21.2v-29.6c0-10.3-1.6-17.2-5-21.2C265.9,223.4,261,221.5,254.8,221.5z M263.3,280.4c0,10.6-3,16-8.5,16h-5.5v-66
		h5.5c5.5,0,8.5,5.7,8.5,16.2V280.4z"/>
	<path class="st4" d="M349.6,262.8l15.6-40c0.1-0.3,0.1-0.6-0.1-0.9c-0.2-0.3-0.6-0.4-0.9-0.4h-8.9c-0.5,0-0.9,0.2-1,0.6l-9.9,26.6
		l-10-26.6c-0.2-0.4-0.6-0.7-1-0.7h-9.2c-0.4,0-0.7,0.1-0.9,0.4c-0.2,0.3-0.3,0.6-0.1,1l15,40.1l-15.9,41.3
		c-0.1,0.3-0.1,0.6,0.1,0.9c0.2,0.3,0.6,0.3,0.9,0.3h8.9c0.5,0,0.9-0.2,1-0.6l10.4-27.6l10.5,27.6c0.2,0.4,0.6,0.6,1,0.6h9.2
		c0.4,0,0.7,0,0.9-0.3c0.2-0.3,0.3-0.6,0.1-1L349.6,262.8z"/>
</g>
</svg>
