<?xml version="1.0" encoding="utf-8"?>
<!-- Generator: Adobe Illustrator 19.2.1, SVG Export Plug-In . SVG Version: 6.00 Build 0)  -->
<svg version="1.1" id="Calque_1" xmlns="http://www.w3.org/2000/svg" xmlns:xlink="http://www.w3.org/1999/xlink" x="0px" y="0px"
	 viewBox="0 0 224.6 275.1" style="enable-background:new 0 0 224.6 275.1;" xml:space="preserve">
<style type="text/css">
	.st0{fill:#FFAB42;}
	.st1{fill-rule:evenodd;clip-rule:evenodd;fill:#FFAB42;}
	.st2{fill-rule:evenodd;clip-rule:evenodd;fill:#3772FF;}
</style>
<g>
	<path class="st0" d="M9.8,220.6l-9.2,0c-0.4,0-0.6,0.2-0.6,0.6l0,52.2c0,0.4,0.2,0.5,0.6,0.5l6,0c0.4,0,0.5-0.1,0.5-0.5l0-17.9
		l2.8,0c3.9,0,6.9-1.2,9.1-3.8c2.1-2.5,3.1-6.9,3.1-13.5v-0.4c0-6.5-1-10.9-3.1-13.5C16.7,221.8,13.7,220.6,9.8,220.6z M7,226.3
		l2.8,0c3.3,0,4.8,3.8,4.8,10.6l0,2.3c0,6.8-1.4,10.6-4.8,10.6l-2.8,0L7,226.3z"/>
	<path class="st0" d="M136.5,268.1l-12.2,0l0-17.8l10.8,0c0.4,0,1.2-0.3,1.2-0.7l0-4.8c0-0.4-0.9-0.9-1.2-0.9l-10.8,0l0-17.8l11.9,0
		c0.4,0,0.8,0,0.8-0.4l0-4.8c0-0.4-0.4-0.6-0.8-0.6l-8,0c-3,2.3-6.5,4.3-11.5,4.3l0,48.4c0,0.4,0.4,0.5,0.8,0.5l18.9,0
		c0.4,0,0.5-0.1,0.5-0.5l0-4.8C137,268.1,136.9,268.1,136.5,268.1z"/>
	<path class="st0" d="M181.5,268l0-17.8l10.7,0c0.4,0,0.7-0.3,0.7-0.7l0-4.8c0-0.4-0.3-0.9-0.7-0.9l-10.7,0l0-17.8l11.8,0
		c0.4,0,0.8,0,0.8-0.4l0-4.8c0-0.4-0.5-0.6-0.8-0.6l-18.7,0c-0.4,0-0.8,0.2-0.8,0.6l0,52.2c0,0.4,0.4,0.5,0.8,0.5l18.9,0
		c0.4,0,0.6-0.1,0.6-0.5l0-4.8c0-0.4-0.2-0.4-0.6-0.4L181.5,268"/>
	<path class="st1" d="M76.7,229.5"/>
	<path class="st0" d="M38.2,219.3c-4,0-7,1.3-9.1,3.9c-2.1,2.6-3.1,7-3.1,13.5l0,21c0,6.5,1,11,3.1,13.5c2.1,2.6,5.2,3.9,9.2,3.9
		s6.8-1.3,8.9-3.9c2.1-2.6,2.9-7,2.9-13.5l0-21c0-6.5-0.8-11-3-13.5C45,220.6,42.2,219.3,38.2,219.3z M33,235.6c0-3.9,0.6-6.6,1.5-8
		c0.9-1.3,2.1-2,3.7-2c1.2,0,5,0,5,10l0,23.3c0,2.5,0.1,10-4.9,10c-1.6,0-2.9-0.6-3.7-2c-0.9-1.4-1.5-4.1-1.5-8L33,235.6z"/>
	<path class="st0" d="M106.7,249.7c-0.9-0.9-2-1.9-3.4-2.9l-5.9-4.4c-1.4-1.1-2.3-2.3-2.8-3.7c-0.5-1.4-0.7-3.3-0.7-5.6
		c0-7.4,3.4-7.4,4.5-7.4c3.1,0,4.7,2.9,4.9,8.9c0,0.2,0.1,0.4,0.3,0.5c0.2,0.1,0.4,0.2,0.6,0.1l5.7-1.3c0.3-0.1,0.6-0.4,0.5-0.7
		c-0.4-5.2-1.6-8.8-3.6-10.8c-2-2-4.9-3.1-8.4-3.1c-3.6,0-6.5,1.1-8.6,3.3c-2.1,2.2-3.1,5.9-3.1,11.3c0,6.4,2.4,11.4,7,14.6l5.9,4.4
		c2.5,2,3.8,4.8,3.8,8.6c0,4.8-1.7,7.2-5.2,7.2c-1.6,0-2.8-0.8-3.7-2.3c-1-1.7-1.5-4.6-1.7-8.7c0-0.2-0.1-0.4-0.3-0.5
		c-0.2-0.1-0.4-0.2-0.6-0.1l-5.6,1c-0.4,0.1-0.6,0.4-0.6,0.7c0.5,6.1,1.7,10.2,3.8,12.6c2.1,2.4,5.1,3.7,8.8,3.7
		c3.7,0,6.7-1,8.9-3.1c2.2-2.1,3.3-5.6,3.3-10.6c0-2.8-0.4-5.2-1.2-7.2C108.4,252.1,107.6,250.7,106.7,249.7z"/>
	<path class="st0" d="M154.4,220.5l-10.1,0c-0.4,0-0.9,0.2-0.9,0.6l0,52.2c0,0.4,0.6,0.5,0.9,0.5l10.1,0c4,0,7-1.2,9.2-3.8
		c2.2-2.6,3.2-6.9,3.2-13.5l0-18.8c0-6.5-1-10.9-3.2-13.5C161.5,221.7,158.4,220.5,154.4,220.5z M159.9,236.5l0,21.4
		c0,6.7-1.9,10.2-5.4,10.2l-3.5,0l0-41.9l3.5,0C157.9,226.2,159.9,229.8,159.9,236.5z"/>
	<path class="st0" d="M214.6,246.7l9.9-25.4c0.1-0.2,0.1-0.4-0.1-0.6c-0.1-0.2-0.4-0.2-0.6-0.2l-5.7,0c-0.3,0-0.6,0.1-0.7,0.4
		l-6.3,16.9l-6.4-16.9c-0.1-0.3-0.4-0.4-0.7-0.4l-5.8,0c-0.2,0-0.4,0.1-0.6,0.2c-0.1,0.2-0.2,0.4-0.1,0.6l9.5,25.4L197.2,273
		c-0.1,0.2-0.1,0.4,0.1,0.6c0.1,0.2,0.4,0.2,0.6,0.2l5.7,0c0.3,0,0.6-0.1,0.7-0.4l6.6-17.5l6.7,17.5c0.1,0.3,0.4,0.4,0.7,0.4l5.8,0
		c0.2,0,0.4,0,0.6-0.2c0.1-0.2,0.2-0.4,0.1-0.6L214.6,246.7z"/>
	<path class="st0" d="M77,249.7c-0.9-0.9-2-1.9-3.4-2.9l-5.9-4.4c-1.4-1.1-2.3-2.3-2.8-3.7c-0.5-1.4-0.7-3.3-0.7-5.6
		c0-7.4,3.4-7.4,4.5-7.4c3.1,0,4.7,2.9,4.9,8.9c0,0.2,0.1,0.4,0.3,0.5c0.2,0.1,0.4,0.2,0.6,0.1l5.7-1.3c0.3-0.1,0.6-0.4,0.5-0.7
		c-0.4-5.2-1.6-8.8-3.6-10.8c-0.9-0.9-1.9-1.6-3-2.1c-4.7,1.4-9.4,2.3-14.2,2.6c-1.9,2.2-2.9,5.8-2.9,11c0,6.4,2.4,11.4,7,14.6
		l5.9,4.4c2.5,2,3.8,4.8,3.8,8.6c0,4.8-1.7,7.2-5.2,7.2c-1.6,0-2.8-0.8-3.7-2.3c-1-1.7-1.5-4.6-1.7-8.7c0-0.2-0.1-0.4-0.3-0.5
		c-0.2-0.1-0.4-0.2-0.6-0.1l-5.6,1c-0.4,0.1-0.6,0.4-0.6,0.7c0.5,6.1,1.7,10.2,3.8,12.6c2.1,2.4,5.1,3.7,8.8,3.7
		c3.7,0,6.7-1,8.9-3.1c2.2-2.1,3.3-5.6,3.3-10.6c0-2.8-0.4-5.2-1.2-7.2C78.8,252.2,77.9,250.7,77,249.7z"/>
</g>
<path class="st2" d="M130.9,188.3c-3.6,2.7-7.8,5.8-11.5,8.4c-3,2.2-5.7,4.1-7.2,5.2c0.4,3.5,2.4,12.5,5.7,13.4
	c1.5,0.4,2.8,0.6,3.8,0.6c7.1,0,6-9.2,41.9-22.6c7.3-2.7,21.3-7.5,21.3-7.5s-41.2-42.3-43.1-42.6c-4.5-0.8-10.6-2.9-13.7-7.6
	c0,0-10.8-16.3-6.1-25.1c-2.9,2.4-6.3,3.2-9.5,3.2c-6.3,0-12-3.2-12.2-3.3c0,0,5.2,5.2,6,9.6c1,5.3-0.8,9.4-0.8,9.4
	c2.4,3.9,4.8,4.2,4.9,13.6c0.2,13.6-11,20.3-20.5,20.3c-1.9,0-3.7-0.3-5.3-0.8c-0.4,1.2-17.1,48.5-19.3,51.6
	c1.4,0.2,2.8,0.3,4.2,0.3c14.1,0,28.7-8.5,41.2-16.7c1.4-1.1,4.2-3.1,7.5-5.5c0.8-0.6,1.6-1.2,2.5-1.8c6.2-5,9.1-7.1,13-11.1
	c5.3-5.4,9.2-7.6,11.6-7.6c1.5,0,2.4,0.8,2.8,2.2C149,177.2,132.4,187.2,130.9,188.3z M112.6,170.6c-2,6.6-7.4,8.8-7.4,8.8
	s3.4-6.4,4.8-10.3c1.4-3.9,3.1-10.3,3.1-10.3S114.6,164,112.6,170.6z M121.8,173.7c0,0,0-0.7-0.1-2.1c-0.1-1.3-0.2-3.2-0.4-5.4
	c-0.1-1.1-0.2-2.3-0.3-3.6c-0.1-1.3-0.3-2.6-0.4-4c-0.1-1.4-0.3-2.8-0.5-4.3c-0.2-1.5-0.4-2.9-0.6-4.4c-0.2-1.5-0.5-3-0.7-4.4
	c-0.3-1.4-0.5-2.9-0.8-4.2c-0.3-1.4-0.6-2.7-0.9-3.9c-0.3-1.2-0.6-2.4-0.9-3.5c-0.3-1.1-0.6-2.1-0.9-2.9c-0.2-0.9-0.6-1.6-0.8-2.2
	c-0.5-1.2-0.7-1.9-0.7-1.9s6.9,7.1,9.1,20.8C125.1,161.2,121.8,173.7,121.8,173.7z M130.9,198.3c-1.7,1.8-2.7,2.8-4.6,4.9
	c-1.6,1.8-2.8,2.9-3.5,4.7c-0.6,1.3-0.8,2.6,0.3,2.6c0.5,0,1.3-0.3,2.4-0.9c0.9-0.5,5.1-3.9,5.1-3.9s-4.9,5.1-7.2,6.3
	c-0.8,0.4-1.5,0.6-2.2,0.6c-0.5,0-1-0.2-1.3-0.6c-0.5-0.6-0.7-3.2,3.3-7.3c2-2.1,4.6-4.2,9.6-8.3L130.9,198.3z M153.7,172.2
	c-0.5-1.7-1.7-3-2.9-4c-1.3-1.1-2.6-2.4-3.8-3.7c-1.2-1.3-2.2-2.5-3.4-3.9c-2.3-2.7-4.3-5.2-5.8-7c-3.3-4.1-5.4-7-5.5-7l-0.1-0.1
	l0.4-0.3l0.6,0.5c0.1,0.1,15.2,14.4,16.5,15.7c0.6,0.6,3.7,3.5,3.7,3.6c1.4,1.4,3,3.2,3.6,5.4c0.3,1.2,0.3,2.4,0.1,3.5
	c-0.2,1.1-0.7,2.1-1.1,3l0,0.1c-1.3,2.7-2.8,3.9-4.1,4.8c-0.1,0.1-0.2,0.2-0.3,0.3c-0.9,0.7-16.1,11.1-16.1,11.1
	s13.8-12.6,14.8-13.5c1.4-1.2,2.3-2.4,3-3.6C154,175.4,154.2,173.7,153.7,172.2z"/>
<path class="st1" d="M137.7,215.7c3.3-5.5,10.3-10.2,17.3-10.4"/>
<g>
	<path class="st0" d="M129.8,117.4c2.4,10.5,7.2,16.7,14.3,18.1c3.5,0.7,13.8,1.3,16.9,1.3c0,0-0.9,0-0.9,0c1.8,0,3.3-0.6,3.3-3.9
		c0-3.7,0.2-40.1,0.2-45.3c0-3-0.7-5.1-3.1-5.1c-2.4,0-12.9-0.5-15.1,0.5c0,0.1,0,0.1,0,0.2c0,0.2,0.1,0.4,0.1,0.6
		c0,0.4,0.1,0.8,0.1,1.2c0.1,1.5,0,3-0.2,4.6c-0.3,2.5-0.9,5.1-1.9,7.7c-0.6,1.8-1.3,3.5-2.2,5.1c-0.5,1-0.8,1.5-1.1,1.8
		c-0.1,0.1-0.2,0.2-0.3,0.3c-0.1,0.1-0.2,0.1-0.3,0.1l-0.4,0.1l-0.1-0.1l-0.1,0l-0.3-0.3l0.6-0.6l-0.7-0.3c0-0.1,0.1-0.5,0.4-1.8
		c0.2-0.9,0.5-2.7,0.8-5.2c0.3-2.2,0.6-4.7,0.7-7.2c0-1.5,0-2.7-0.1-3.9c0-0.3-0.1-0.6-0.1-0.9l-0.2-0.9c-0.2-0.7-0.3-1.3-0.5-1.8
		c-0.4-1.2-0.9-2.3-1.6-3.3c-0.6-1-1.4-1.8-2.3-2.5c-0.9-0.7-1.8-1.3-2.8-1.6c-1-0.4-2-0.7-3-0.9c-0.3,0-0.5-0.1-0.8-0.1l-1,0.3
		c-3.3,0.9-7.9,2-14.7,2.3c-4.1,0.2-7.3-0.3-9.8-0.7c-3.6-0.5-6.2-0.9-9.1,0.7c-4.1,2.3-6,6.5-5.4,11.7c0.7,6.2,5.6,13.7,14.8,16.2
		c7.3,2,14.8,1,23-3.1l1.3-0.7l-0.1,1.5C128.3,101.7,128,109.4,129.8,117.4z"/>
	<g>
		<path class="st0" d="M70.2,129.4c0.9,0.7,1.8,1.3,2.9,2c0.9,0.6,1.9,1.3,2.9,1.8c2.3,1.3,4.2,2.1,5.9,2.4c0.8,0.2,1.7,0.3,2.9,0.3
			c0.6,0,1.6-0.2,2.6-0.4c2-0.5,3.8-1.2,5.3-2.1c1.5-0.9,2.7-1.9,3.5-3.1c0.7-1,1.2-2.3,1.5-3.5c0.2-1.4,0.1-2.5,0-3.2l0-0.3
			c-0.1-1-0.2-2.2-1-4.2c-0.9-2.2-2.2-4.1-5.9-6.3l-2.9-0.9c-0.2,0.3-0.4,0.5-0.6,0.8c-1.1,1.3-2.3,2.4-3.5,3.1
			c-1.4,0.9-2.8,1.5-4.2,1.9c-1.3,0.4-2.8,0.6-4.4,0.7c-2.5,0.1-5.3-0.2-8.4-1c-1.5-0.4-2.8-0.8-3.9-1.1c-1-0.3-1.9-0.7-2.9-1
			l-0.8-0.3c-1.3-0.5-7.1-1-11.3-1.2c0.1,0.4,0.2,1,0.3,1.6c0.3,1,0.6,2.1,1.2,3.2c0.5,0.8,1.3,2,2.7,2.8c1.3,0.7,3,1.2,4.8,1.8
			l0.3,0.1c2.5,0.7,4.6,1.5,6.5,2.4C65.9,126.5,68.1,127.9,70.2,129.4z"/>
		<path class="st0" d="M98.9,135.5c-0.9,1.1-2,2-3.1,2.8c-2,1.4-4.3,2.5-6.8,3.2c-0.7,0.2-1.3,0.3-2,0.4c-0.3,0.1-0.7,0.1-1.1,0.2
			l-1.1,0.1l-0.2,0c-1.5,0-2.9-0.2-4.2-0.6c-2.9-0.8-5.3-2.3-7.3-3.6c-1-0.6-2-1.4-3.1-2.2c-1-0.8-2-1.6-2.9-2.3
			c-1.8-1.5-3.5-2.7-5.4-3.7c-0.3-0.2-0.7-0.4-1.1-0.5c0.7,6,3.5,11.3,7.1,13.2c6.1,3.2,8.1,5,9.7,6.4c1.5,1.3,2.7,2.4,7.1,4.3
			c6.3,2.8,12.7-0.2,15.6-4.4C102.9,144.5,102.4,139.7,98.9,135.5z"/>
		<path class="st0" d="M47.9,107.6c0.6,0,1.2,0,1.8,0c1,0,2.1,0,3.2,0.1c2.8,0.2,5.5,0.7,8,1.5l1,0.3c0.9,0.3,1.7,0.5,2.6,0.7
			c1.1,0.3,2.3,0.6,3.5,0.8c1.1,0.2,2.3,0.3,3.5,0.4c1.3,0.1,2.4,0.1,3.4,0c1.1-0.1,2.2-0.2,3.2-0.4c1.1-0.3,2-0.6,2.8-1
			c0.9-0.5,1.8-1.1,2.4-1.7c0.5-0.5,1-1.1,1.5-1.8c2.1-5.6,0.8-14-6-19.4c-1.9-1.5-7.3-2.8-12.8-2.2c-3.7,0.5-6.5,1.7-7.9,3.5
			l-1,1.3l-9.4-11.9c-10.4,6-12.2,8.8-12.8,15.3c-0.2,2.1-0.1,4.1,0.4,6l0.3,0.7c0.5,1,1,2.1,1.7,3.2c0.7,1.1,1.4,2,2.1,2.6
			c0.7,0.7,1.6,1.2,2.6,1.5c1,0.3,2.2,0.4,3.2,0.5C46.1,107.6,47,107.6,47.9,107.6z"/>
	</g>
</g>
<g>
	<path class="st2" d="M99,6.1c-11.6,1.7-8.4,12.5-20.8,22.2l7.5,43.2c0,0,4.1-8,16.4-7c2.8,0.2,4.6,1,4.6,1
		c1.9-8.9,3.1-12.6,5.2-29.2C114.5,15.2,111.5,4.3,99,6.1z M92.3,60c0,0-2-9.8-2.7-16.3c-0.7-6-1.8-14.8-2-16.1c0-0.1,0-0.1-0.1-0.2
		l0,0c0,0,0,0.1,0,0.2c1.3,3.3,3.1,11.6,3.7,15.9C92.1,49.4,92.3,60,92.3,60z"/>
	<path class="st2" d="M63.6,0c-7.9,15.2-13.4,22.6-23.3,29.6c-11.7,8.3-5.5,16.8-0.1,23.8c7.2,9.3,19.1,24.7,19.1,24.7
		s4.8-3,11.2-2.9c6.4,0.1,10.9,2.2,10.9,2.2L63.6,0z M68.1,56.7c-2.9-6.6-8.9-16.3-8.9-16.3s2.9,11.4,5.8,17.4
		c2.1,4.4,7.5,12.8,10.7,15.5l-0.1,0C75.6,73.3,71,63.4,68.1,56.7z"/>
	<path class="st2" d="M120.6,38.9l-8.9,27.8c0,0,1.9,0.6,5.2,0.4c0.1-0.3,9.6-21,9.6-21s-1.3,6.1-3.2,12.1c-0.7,2.4-2.3,8.3-2.5,8.6
		c3.7-1.1,4.6-1.3,7.7-3.3c7.8-11.7,10.9-23.8,16.5-49.7C132.8,28.9,129.3,33.7,120.6,38.9z"/>
</g>
</svg>
